HIERARCHY
ROOT Hips
{
	OFFSET 0.00000 0.00000 0.00000
	CHANNELS 6 Xposition Yposition Zposition Zrotation Yrotation Xrotation 
	JOINT LHipJoint
	{
		OFFSET 0 0 0
		CHANNELS 3 Zrotation Yrotation Xrotation
		JOINT LeftHip
		{
			OFFSET 1.80322 -1.53100 0.99595
			CHANNELS 3 Zrotation Yrotation Xrotation
			JOINT LeftKnee
			{
				OFFSET 2.25177 -6.18669 0.00000
				CHANNELS 3 Zrotation Yrotation Xrotation
				JOINT LeftAnkle
				{
					OFFSET 2.26601 -6.22582 0.00000
					CHANNELS 3 Zrotation Yrotation Xrotation
					JOINT LeftToe
					{
						OFFSET 0.23701 -0.65119 2.15848
						CHANNELS 3 Zrotation Yrotation Xrotation
						End Site
						{
							OFFSET 0.00000 -0.00000 1.12949
						}
					}
				}
			}
		}
	}
	JOINT RHipJoint
	{
		OFFSET 0 0 0
		CHANNELS 3 Zrotation Yrotation Xrotation
		JOINT RightHip
		{
			OFFSET -1.93977 -1.53100 0.99595
			CHANNELS 3 Zrotation Yrotation Xrotation
			JOINT RightKnee
			{
				OFFSET -2.28036 -6.26523 0.00000
				CHANNELS 3 Zrotation Yrotation Xrotation
				JOINT RightAnkle
				{
					OFFSET -2.25490 -6.19528 0.00000
					CHANNELS 3 Zrotation Yrotation Xrotation
					JOINT RightToe
					{
						OFFSET -0.28375 -0.77960 2.23137
						CHANNELS 3 Zrotation Yrotation Xrotation
						End Site
						{
							OFFSET -0.00000 -0.00000 1.17899
						}
					}
				}
			}
		}
	}
	JOINT lowerback
	{
		OFFSET 0 0 0
		CHANNELS 3 Zrotation Yrotation Xrotation
		JOINT Chest
		{
			OFFSET -0.00088 2.12090 -0.02806
			CHANNELS 3 Zrotation Yrotation Xrotation
			JOINT Chest2
			{
				OFFSET -0.00286 2.09666 0.12974
				CHANNELS 3 Zrotation Yrotation Xrotation
				JOINT lowerneck
				{
					OFFSET 0 0 0
					CHANNELS 3 Zrotation Yrotation Xrotation
					JOINT Neck
					{
						OFFSET 0.07328 1.83526 0.07290
						CHANNELS 3 Zrotation Yrotation Xrotation
						JOINT Head
						{
							OFFSET -0.06683 1.74974 -0.49542
							CHANNELS 3 Zrotation Yrotation Xrotation
							End Site
							{
								OFFSET -0.03398 1.85163 -0.17573
							}
						}
					}
				}
				JOINT LeftCollar
				{
					OFFSET 0 0 0
					CHANNELS 3 Zrotation Yrotation Xrotation
					JOINT LeftShoulder
					{
						OFFSET 3.02113 1.18018 0.40602
CHANNELS 3 Zrotation Xrotation Yrotation
						JOINT LeftElbow
						{
OFFSET 0 -4.585380 -0.000000
CHANNELS 3 Zrotation Xrotation Yrotation
							JOINT LeftWrist
							{
OFFSET 0 -2.689350 -0.000000
CHANNELS 3 Zrotation Xrotation Yrotation
								JOINT lhand
								{
									OFFSET 0 0 0
CHANNELS 3 Zrotation Xrotation Yrotation
									JOINT LFingers
									{
OFFSET 0 -0.585060 -0.000000
CHANNELS 3 Zrotation Xrotation Yrotation
										End Site
										{
OFFSET 0 -0.471690 -0.000000
										}
									}
								}
								JOINT LThumb
								{
OFFSET 0 0.000000 0.000000
CHANNELS 3 Zrotation Xrotation Yrotation
									End Site
									{
OFFSET 0 -0.478890 0.478890
									}
								}
							}
						}
					}
				}
				JOINT RightCollar
				{
					OFFSET 0 0 0
					CHANNELS 3 Zrotation Yrotation Xrotation
					JOINT RightShoulder
					{
						OFFSET -2.95074 1.18843 0.31430
CHANNELS 3 Zrotation Xrotation Yrotation
						JOINT RightElbow
						{
OFFSET 0 -4.474500 -0.000000
CHANNELS 3 Zrotation Xrotation Yrotation
							JOINT RightWrist
							{
OFFSET 0 -2.938960 -0.000000
CHANNELS 3 Zrotation Xrotation Yrotation
								JOINT rhand
								{
									OFFSET 0 0 0
CHANNELS 3 Zrotation Xrotation Yrotation
									JOINT RFingers
									{
OFFSET 0 -0.405090 -0.000000
CHANNELS 3 Zrotation Xrotation Yrotation
										End Site
										{
OFFSET 0 -0.326600 -0.000000
										}
									}
								}
								JOINT RThumb
								{
OFFSET 0 0.000000 0.000000
CHANNELS 3 Zrotation Xrotation Yrotation
									End Site
									{
OFFSET 0 -0.331580 0.331580
									}
								}
							}
						}
					}
				}
			}
		}
	}
}
MOTION
Frames: 12
Frame Time: 0.008333333333333333
1.709944 11.100363 1.206330 5.747819 -5.128215 8.146101 0.000000 0.000000 0.000000 -11.866592 -19.875339 -78.767252 20.347563 19.996778 91.016288 0.924387 -0.385648 -18.048609 0.031600 1.147631 3.155192 0.000000 0.000000 0.000000 0.390858 3.562475 -11.115513 -21.542481 -19.942833 94.514173 -2.914663 10.959196 -30.797677 -4.490144 12.785553 -38.570988 -4.184568 -2.577570 5.579599 -3.172649 -3.989129 -3.046532 -0.537432 -1.867769 -6.260571 13.986054 7.992812 -17.320261 -4.922009 8.537567 24.933869 -2.793582 4.563625 11.925604 0.000000 0.000000 0.000000 35.270685 -29.449970 -53.657657 41.025098 -48.665309 19.205533 0.463160 3.092595 -9.343954 0.000000 0.000000 0.000000 -7.125000 0.000000 0.000000 -22.525927 38.326154 -3.943749 0.000000 0.000000 0.000000 -21.307150 22.432571 65.712739 -76.899784 -59.341523 -48.679913 -14.871050 -18.686583 2.456307 0.000000 0.000000 0.000000 7.125000 0.000000 0.000000 9.449581 32.422459 2.944673
1.580883 11.508499 0.859126 5.654500 -5.789032 7.517466 0.000000 0.000000 0.000000 -11.624144 -19.033067 -75.272111 18.036782 19.906151 84.250999 0.596187 0.405014 -14.737450 0.032349 1.160913 3.191792 0.000000 0.000000 0.000000 1.474257 3.523242 -12.172751 -20.851982 -19.982489 92.491649 -2.970412 9.960770 -31.104934 -4.325443 12.581267 -37.820767 -4.354899 -2.336365 5.108023 -2.833254 -3.640849 -3.283803 -0.142522 -1.680245 -6.213082 13.744725 7.640973 -17.321289 -4.312680 7.941649 25.386187 -2.630849 4.359191 11.998792 0.000000 0.000000 0.000000 32.102563 -26.520425 -53.326527 45.494403 -51.006348 22.622979 2.986633 3.092988 -10.667568 0.000000 0.000000 0.000000 -7.125000 0.000000 0.000000 -20.860909 39.760273 -2.838785 0.000000 0.000000 0.000000 -20.601990 22.574118 64.959391 -74.980159 -59.129934 -47.030478 -13.876927 -16.792807 2.682047 0.000000 0.000000 0.000000 7.125000 0.000000 0.000000 10.271683 32.622424 3.157696
1.418547 11.980539 0.419560 5.304508 -6.661141 6.751127 0.000000 0.000000 0.000000 -11.041717 -18.001207 -70.893685 15.178119 19.431386 75.771297 0.283196 1.685181 -10.805454 0.034907 1.206491 3.317215 0.000000 0.000000 0.000000 3.158451 3.684567 -13.027271 -19.864750 -19.999316 89.604588 -3.043906 9.095713 -31.530756 -4.046821 12.222405 -36.523378 -4.050457 -2.041608 4.578815 -2.533665 -3.178171 -3.415795 -0.064051 -1.460294 -6.056595 13.602307 7.341808 -17.142005 -3.571706 7.377571 26.015670 -2.431436 4.202349 12.117520 0.000000 0.000000 0.000000 28.129876 -21.369199 -51.445771 51.342673 -53.521293 27.250479 4.781766 1.743671 -12.421248 0.000000 0.000000 0.000000 -7.125000 0.000000 0.000000 -19.900928 41.565954 -1.764006 0.000000 0.000000 0.000000 -18.678438 21.803799 62.896569 -70.286841 -58.478054 -43.015257 -11.499319 -14.367581 4.210690 0.000000 0.000000 0.000000 7.125000 0.000000 0.000000 12.400701 34.070539 3.391416
1.220213 12.521635 -0.122855 4.680345 -7.636045 5.955137 0.000000 0.000000 0.000000 -10.099662 -16.937338 -65.321983 11.649304 18.237981 64.872270 0.009222 3.830675 -5.847381 0.047655 1.408448 3.873358 0.000000 0.000000 0.000000 5.472082 4.082103 -13.401360 -18.376367 -19.936595 85.247921 -3.158726 8.693146 -32.169466 -3.829610 11.930145 -35.485267 -3.241765 -1.749001 4.020227 -2.245079 -2.680963 -3.391831 -0.279096 -1.247451 -5.741236 13.502607 7.067082 -16.511045 -3.169669 7.000149 26.658707 -2.346171 4.097831 12.189598 0.000000 0.000000 0.000000 23.702556 -14.766513 -48.154454 55.444026 -54.968363 30.579255 5.342528 1.324883 -13.541443 0.000000 0.000000 0.000000 -7.125000 0.000000 0.000000 -19.786548 42.676563 -1.184849 0.000000 0.000000 0.000000 -15.683642 19.482585 60.192606 -61.622215 -56.726410 -35.694346 -10.043309 -11.500812 6.086591 0.000000 0.000000 0.000000 7.125000 0.000000 0.000000 13.912468 35.857617 3.203690
0.971762 13.115381 -0.762896 3.835314 -8.699581 5.334200 0.000000 0.000000 0.000000 -8.625007 -16.077268 -58.035874 7.521876 15.750686 50.812612 -0.172954 7.524703 -1.036068 0.105969 2.098694 5.778396 0.000000 0.000000 0.000000 8.617995 4.742280 -13.302564 -16.351192 -19.677050 79.275990 -3.214779 7.610952 -32.549202 -3.414683 11.337667 -33.427547 -2.287800 -1.399202 3.319330 -1.917120 -2.096465 -3.157488 -0.542016 -0.996491 -5.120650 13.319711 6.803555 -15.457813 -3.119194 6.827065 27.076268 -2.356984 4.031127 12.114157 0.000000 0.000000 0.000000 18.878155 -8.026795 -43.166151 54.460312 -54.642843 29.775421 4.959511 1.486689 -13.996019 0.000000 0.000000 0.000000 -7.125000 0.000000 0.000000 -20.270025 43.064866 -1.012812 0.000000 0.000000 0.000000 -12.053332 15.437658 57.526045 -49.444723 -52.760591 -25.733602 -10.893148 -9.325457 5.902753 0.000000 0.000000 0.000000 7.125000 0.000000 0.000000 13.183281 35.722118 3.072296
0.686287 13.686749 -1.460394 2.641977 -9.228432 5.708609 0.000000 0.000000 0.000000 -6.232272 -16.403323 -49.877637 3.701307 11.742125 34.838386 -0.267915 9.180156 -4.184063 0.030615 1.128925 3.103670 0.000000 0.000000 0.000000 12.555643 5.132617 -13.060121 -13.778303 -19.043615 71.524645 -3.342029 5.596337 -33.462116 -2.969663 10.645553 -31.093914 -0.998899 -1.193381 1.928827 -1.544498 -1.697339 -3.007084 -0.938317 -0.841826 -4.197280 13.296731 6.647699 -14.274771 -3.497081 6.904995 27.241837 -2.516817 4.035648 11.957830 0.000000 0.000000 0.000000 14.096637 -2.309584 -36.287286 48.540688 -52.386709 25.014227 5.224949 2.565062 -14.360194 0.000000 0.000000 0.000000 -7.125000 0.000000 0.000000 -20.166701 43.435154 -0.814225 0.000000 0.000000 0.000000 -8.140964 10.201627 54.993277 -36.168825 -45.616020 -15.647244 -13.022493 -7.158282 4.595884 0.000000 0.000000 0.000000 7.125000 0.000000 0.000000 11.227352 34.522564 2.934948
0.402522 14.152813 -2.131412 1.401653 -9.247134 7.126879 0.000000 0.000000 0.000000 -2.906692 -18.899022 -42.653153 1.402187 7.485908 21.165231 -0.424801 13.391034 -12.374577 0.136362 2.375821 6.545753 0.000000 0.000000 0.000000 16.398449 5.110511 -12.595833 -10.861029 -17.865091 62.327684 -3.577365 3.504651 -35.051214 -2.489121 9.817802 -28.388892 0.369541 -1.074920 -0.021125 -1.229861 -1.471931 -3.444659 -1.426212 -0.769009 -3.570326 13.559039 6.540835 -13.073867 -3.995254 7.022419 27.714433 -2.763896 4.082173 11.942659 0.000000 0.000000 0.000000 9.799473 3.163690 -28.059024 42.102125 -49.265700 20.018336 6.811753 2.991006 -15.205922 0.000000 0.000000 0.000000 -7.125000 0.000000 0.000000 -19.078245 44.407919 -0.290090 0.000000 0.000000 0.000000 -5.110065 6.216870 52.900934 -26.790867 -37.975063 -9.371733 -13.798452 -3.673013 6.009571 0.000000 0.000000 0.000000 7.125000 0.000000 0.000000 10.814007 35.985578 2.431548
0.153884 14.481428 -2.749314 1.034013 -9.065640 8.651789 0.000000 0.000000 0.000000 -3.042764 -19.149543 -39.825598 1.023125 6.434258 18.049791 -0.763261 17.331589 -15.300040 0.260259 3.282210 9.065437 0.000000 0.000000 0.000000 19.042459 4.986067 -12.579308 -8.378458 -16.390203 53.913956 -3.727680 1.091493 -36.377273 -1.787444 8.407954 -23.960591 0.497911 -1.027694 -1.437176 -1.051857 -1.410020 -4.346472 -1.335239 -0.745783 -3.703043 13.791693 6.490100 -12.411153 -4.016972 7.018777 28.676696 -2.834524 4.134596 12.204576 0.000000 0.000000 0.000000 6.602774 9.197798 -20.742238 37.609308 -46.587489 16.681317 9.452301 0.737015 -17.559453 0.000000 0.000000 0.000000 -7.125000 0.000000 0.000000 -17.573460 46.974545 0.882343 0.000000 0.000000 0.000000 -4.242210 4.804659 52.397132 -22.075404 -33.061831 -6.627054 -12.592445 -0.117668 7.417688 0.000000 0.000000 0.000000 7.125000 0.000000 0.000000 12.060476 37.329826 2.317346
-0.032601 14.747545 -3.347696 1.207280 -8.345278 9.350077 0.000000 0.000000 0.000000 -6.117876 -17.154861 -40.221326 1.728352 8.273658 23.549698 -0.429410 15.539935 -16.855735 0.217121 2.997334 8.271506 0.000000 0.000000 0.000000 20.750207 5.534009 -12.252144 -6.531908 -14.923612 47.078980 -3.575662 -1.073072 -36.245948 -0.927016 6.130211 -17.163702 -0.037925 -1.016455 -1.239300 -0.968899 -1.404284 -4.835908 -0.941611 -0.725173 -4.309352 13.599301 6.387363 -13.234035 -3.637936 6.690252 29.274671 -2.692837 4.018964 12.559528 0.000000 0.000000 0.000000 4.871651 13.949744 -16.439738 32.449365 -42.898636 13.047043 12.860275 -1.649986 -18.548957 0.000000 0.000000 0.000000 -7.125000 0.000000 0.000000 -14.804632 48.399923 1.267044 0.000000 0.000000 0.000000 -5.181341 5.392617 52.693522 -21.135390 -31.986046 -6.121527 -11.736221 2.574859 7.603912 0.000000 0.000000 0.000000 7.125000 0.000000 0.000000 12.809980 37.460332 2.425317
-0.177803 14.943345 -3.922065 1.104880 -6.482839 9.994598 0.000000 0.000000 0.000000 -7.891321 -16.467088 -41.597304 2.947222 10.605941 30.965325 -0.105044 12.047592 -15.656139 0.026675 1.035955 2.847910 0.000000 0.000000 0.000000 22.323365 6.782435 -12.079433 -5.212619 -13.618571 41.731807 -3.285311 -3.051473 -35.451513 -0.322883 3.645146 -10.081226 -0.371446 -1.141516 -0.842646 -0.682366 -1.568507 -4.894649 -0.446264 -0.786408 -4.581007 13.002591 6.114910 -14.225675 -3.537196 6.275802 28.776113 -2.596828 3.761591 12.482005 0.000000 0.000000 0.000000 4.422714 16.701729 -14.937913 26.300734 -37.500408 9.071628 13.212918 -0.167649 -20.036594 0.000000 0.000000 0.000000 -7.125000 0.000000 0.000000 -15.041697 49.909614 1.858155 0.000000 0.000000 0.000000 -6.962182 7.484221 52.151006 -22.263529 -33.273319 -6.729947 -11.882483 1.697456 7.423884 0.000000 0.000000 0.000000 7.125000 0.000000 0.000000 12.653111 37.290778 2.448039
-0.255468 15.103190 -4.433428 1.332026 -5.459452 10.936173 0.000000 0.000000 0.000000 -9.576896 -16.047949 -42.222620 4.745379 13.090377 39.709204 0.295414 7.196082 -15.341393 0.016466 -0.826470 -2.271430 0.000000 0.000000 0.000000 22.849391 8.723653 -12.539826 -4.303211 -12.553198 37.718252 -2.970419 -5.146325 -34.661797 -0.039484 1.280724 -3.521542 -0.497208 -1.029391 -1.260114 -0.678057 -1.415549 -4.913147 -0.384361 -0.705186 -4.359278 12.566339 5.873612 -14.637922 -3.962405 6.116381 28.116289 -2.701119 3.573614 12.271495 0.000000 0.000000 0.000000 4.806566 19.011531 -14.921871 21.558086 -32.473423 6.347186 10.794085 4.405619 -20.193310 0.000000 0.000000 0.000000 -7.125000 0.000000 0.000000 -17.386552 49.692902 2.067215 0.000000 0.000000 0.000000 -8.212607 9.492529 50.998029 -23.189143 -34.294949 -7.244592 -11.212601 -2.015611 9.146607 0.000000 0.000000 0.000000 7.125000 0.000000 0.000000 13.570639 38.953029 2.066455
-0.272600 15.242781 -4.890164 1.406007 -5.356332 11.609247 0.000000 0.000000 0.000000 -11.405014 -15.253362 -40.676300 6.561145 14.950163 47.193003 0.553983 4.915905 -16.713400 0.073207 -1.744944 -4.801301 0.000000 0.000000 0.000000 22.679614 10.929570 -13.435500 -3.841676 -11.946666 35.543538 -2.568776 -5.964177 -32.828557 -0.001674 0.255625 -0.702350 0.030125 -0.759906 -1.480002 -0.865494 -1.054056 -5.001957 -0.884539 -0.550227 -4.339416 12.348652 5.817947 -14.718389 -4.464878 6.246604 28.117602 -2.836114 3.546711 12.303295 0.000000 0.000000 0.000000 5.457762 21.537050 -15.753179 18.939954 -29.343696 5.001509 6.942317 8.399103 -19.987856 0.000000 0.000000 0.000000 -7.125000 0.000000 0.000000 -20.870348 48.928868 2.105631 0.000000 0.000000 0.000000 -8.789365 10.674804 50.136505 -22.778133 -33.845242 -7.014392 -11.293138 -3.001763 9.502259 0.000000 0.000000 0.000000 7.125000 0.000000 0.000000 13.581559 39.310797 1.945935
